# xmcd CD database file
#
# Track frame offsets:
#	150
#	14577
#	29487
#	41812
#	55045
#	67640
#	81377
#	96437
#	109700
#	122722
#	137682
#	153405
#	167802
#	182172
#	196920
#	209890
#	222815
#	236207
#	249957
#	264027
#
# Disc length: 3699 seconds
#
# Revision: 1
# Processed by: cddbd v1.4PL0 Copyright (c) Steve Scherf et al.
# Submitted via: CDex 1.51
#
DISCID=1e0e7114
DTITLE=Billie Holiday - 40 Great Songs [CD2]
DYEAR=1996
DGENRE=Jazz
TTITLE0=Nice Work If You Can Get It
TTITLE1=Can't Help Lovin' Dat Man
TTITLE2=Back In Your Own Back Yard
TTITLE3=You Got To My Head
TTITLE4=The Very Thought Of You
TTITLE5=What A Little Moonlight Can Do
TTITLE6=These Foolish Things
TTITLE7=Summertime
TTITLE8=A Fine Romance
TTITLE9=Pennies From Heaven
TTITLE10=I Can't Give You Anything But Love
TTITLE11=This Is My Last Affair
TTITLE12=Strange Fruit
TTITLE13=Fine And Mellow
TTITLE14=I Gotta Right To Sing The Blues
TTITLE15=Them There Eyes
TTITLE16=Swing Brother, Swing
TTITLE17=Night And Day
TTITLE18=The Man I Love
TTITLE19=Body And Soul
EXTD=YEAR: 1996
EXTT0=
EXTT1=
EXTT2=
EXTT3=
EXTT4=
EXTT5=
EXTT6=
EXTT7=
EXTT8=
EXTT9=
EXTT10=
EXTT11=
EXTT12=
EXTT13=
EXTT14=
EXTT15=
EXTT16=
EXTT17=
EXTT18=
EXTT19=
PLAYORDER=
